<svg xmlns="http://www.w3.org/2000/svg" width="200" height="45" viewBox="0 0 200 45" fill="none">
  <!-- "K" Logo -->
  <g transform="translate(5, 0) scale(0.45)">
    <g filter="url(#a)">
      <path fill="url(#b)" d="M66.657 0H28.343a7.948 7.948 0 0 0-6.887 3.979L2.288 37.235a7.948 7.948 0 0 0 0 7.938L21.456 78.43a7.948 7.948 0 0 0 6.887 3.979h38.314a7.948 7.948 0 0 0 6.886-3.98l19.17-33.256a7.948 7.948 0 0 0 0-7.938L73.542 3.98A7.948 7.948 0 0 0 66.657 0Z"/>
    </g>
    <g filter="url(#c)">
      <path fill="#fff" fill-rule="evenodd" d="M30 20h7v17L56 20h9l-16 22 18 20h-9l-13-14v14h-7V20z" clip-rule="evenodd"/>
    </g>
  </g>
  
  <!-- "ofounda" Text -->
  <path d="M65 32.5c-2.8 0-5-2.2-5-5s2.2-5 5-5 5 2.2 5 5-2.2 5-5 5zm0-12c-3.9 0-7 3.1-7 7s3.1 7 7 7 7-3.1 7-7-3.1-7-7-7z" fill="#fff"/>
  <path d="M80 32.5c-2.8 0-5-2.2-5-5s2.2-5 5-5 5 2.2 5 5v12h2v-12c0-3.9-3.1-7-7-7s-7 3.1-7 7 3.1 7 7 7c1.4 0 2.6-.4 3.7-1.1l-1.2-1.6c-.7.4-1.6.7-2.5.7z" fill="#fff"/>
  <path d="M97 32.5c-2.8 0-5-2.2-5-5s2.2-5 5-5 5 2.2 5 5-2.2 5-5 5zm0-12c-3.9 0-7 3.1-7 7s3.1 7 7 7 7-3.1 7-7-3.1-7-7-7z" fill="#fff"/>
  <path d="M115 32.5c-2.8 0-5-2.2-5-5s2.2-5 5-5 5 2.2 5 5v7h2v-7c0-3.9-3.1-7-7-7s-7 3.1-7 7 3.1 7 7 7c1.9 0 3.6-.8 4.9-2l-1.4-1.4c-.9.9-2.2 1.4-3.5 1.4z" fill="#fff"/>
  <path d="M130 20.5v-2h-2v21h2v-12c0-2.8 2.2-5 5-5v-2c-2.2 0-4.2 1.2-5.2 3z" fill="#fff"/>
  <path d="M146 20.5c-1-1.3-2.5-2-4.2-2-3.9 0-7 3.1-7 7s3.1 7 7 7c1.7 0 3.2-.7 4.2-2v1.5h2v-14h-2v2.5zm-4.2 10c-2.8 0-5-2.2-5-5s2.2-5 5-5 5 2.2 5 5-2.2 5-5 5z" fill="#fff"/>
  <path d="M162 20.5c-1-1.3-2.5-2-4.2-2-3.9 0-7 3.1-7 7s3.1 7 7 7c1.7 0 3.2-.7 4.2-2v1.5h2v-21h-2v9.5zm-4.2 10c-2.8 0-5-2.2-5-5s2.2-5 5-5 5 2.2 5 5-2.2 5-5 5z" fill="#fff"/>
  
  <defs>
    <filter id="a" width="92.549" height="82.409" x="1.226" y="0" color-interpolation-filters="sRGB" filterUnits="userSpaceOnUse">
      <feFlood flood-opacity="0" result="BackgroundImageFix"/>
      <feBlend in="SourceGraphic" in2="BackgroundImageFix" result="shape"/>
      <feColorMatrix in="SourceAlpha" result="hardAlpha" values="0 0 0 0 0 0 0 0 0 0 0 0 0 0 0 0 0 0 127 0"/>
      <feOffset/>
      <feGaussianBlur stdDeviation="1.717"/>
      <feComposite in2="hardAlpha" k2="-1" k3="1" operator="arithmetic"/>
      <feColorMatrix values="0 0 0 0 0 0 0 0 0 0 0 0 0 0 0 0 0 0 0.65 0"/>
      <feBlend in2="shape" result="effect1_innerShadow_615_13380"/>
    </filter>
    <filter id="c" width="38.326" height="48.802" x="28.396" y="16.793" color-interpolation-filters="sRGB" filterUnits="userSpaceOnUse">
      <feFlood flood-opacity="0" result="BackgroundImageFix"/>
      <feBlend in="SourceGraphic" in2="BackgroundImageFix" result="shape"/>
      <feColorMatrix in="SourceAlpha" result="hardAlpha" values="0 0 0 0 0 0 0 0 0 0 0 0 0 0 0 0 0 0 127 0"/>
      <feOffset/>
      <feGaussianBlur stdDeviation=".072"/>
      <feComposite in2="hardAlpha" k2="-1" k3="1" operator="arithmetic"/>
      <feColorMatrix values="0 0 0 0 1 0 0 0 0 1 0 0 0 0 1 0 0 0 0.95 0"/>
      <feBlend in2="shape" result="effect1_innerShadow_615_13380"/>
    </filter>
    <linearGradient id="b" x1="47.5" x2="47.5" y1="0" y2="82.409" gradientUnits="userSpaceOnUse">
      <stop offset="0%" stop-color="#F8F5FF" />
      <stop offset="10%" stop-color="#F0EBFF" />
      <stop offset="20%" stop-color="#E1D6FF" />
      <stop offset="30%" stop-color="#CEBEFF" />
      <stop offset="40%" stop-color="#B69EFF" />
      <stop offset="50%" stop-color="#9C7DFF" />
      <stop offset="60%" stop-color="#8A5FFF" />
      <stop offset="70%" stop-color="#7645E8" />
      <stop offset="80%" stop-color="#6234BB" />
      <stop offset="90%" stop-color="#502D93" />
      <stop offset="100%" stop-color="#2D1959" />
    </linearGradient>
  </defs>
</svg> 