<svg xmlns="http://www.w3.org/2000/svg" viewBox="0 0 72 22">
  <path d="M8.2 17.8c-0.9 0-1.6-0.3-2.1-0.9C5.6 16.3 5.4 15.5 5.4 14.5V8.4H3.1V5.6h2.3V2.3h3.3v3.3h2.8v2.8H8.7v5.4c0 0.4 0.1 0.8 0.3 1c0.2 0.2 0.5 0.3 0.9 0.3c0.5 0 0.9-0.1 1.3-0.4v2.8C10.4 17.6 9.3 17.8 8.2 17.8z M18.9 17.8c-1.8 0-3.1-0.5-4.1-1.6c-1-1.1-1.5-2.6-1.5-4.6c0-2 0.5-3.5 1.6-4.6c1.1-1.1 2.5-1.6 4.2-1.6c1.8 0 3.2 0.5 4.2 1.6c1 1.1 1.5 2.6 1.5 4.5c0 2-0.5 3.6-1.6 4.7C22.2 17.3 20.7 17.8 18.9 17.8z M18.9 15.1c0.8 0 1.4-0.3 1.9-0.9c0.5-0.6 0.7-1.4 0.7-2.5c0-1.1-0.2-1.9-0.7-2.5c-0.5-0.6-1.1-0.9-1.9-0.9c-0.8 0-1.4 0.3-1.9 0.9c-0.5 0.6-0.7 1.4-0.7 2.5c0 1.1 0.2 1.9 0.7 2.5C17.4 14.8 18.1 15.1 18.9 15.1z M31.5 17.8c-1.8 0-3.1-0.5-4.1-1.6c-1-1.1-1.5-2.6-1.5-4.6c0-2 0.5-3.5 1.6-4.6c1.1-1.1 2.5-1.6 4.2-1.6c1.8 0 3.2 0.5 4.2 1.6c1 1.1 1.5 2.6 1.5 4.5c0 2-0.5 3.6-1.6 4.7C34.8 17.3 33.3 17.8 31.5 17.8z M31.5 15.1c0.8 0 1.4-0.3 1.9-0.9c0.5-0.6 0.7-1.4 0.7-2.5c0-1.1-0.2-1.9-0.7-2.5c-0.5-0.6-1.1-0.9-1.9-0.9c-0.8 0-1.4 0.3-1.9 0.9c-0.5 0.6-0.7 1.4-0.7 2.5c0 1.1 0.2 1.9 0.7 2.5C30.1 14.8 30.7 15.1 31.5 15.1z M45.3 17.8c-2.6 0-3.9-1.3-3.9-3.8V2.2h3.3v11.4c0 0.9 0.4 1.4 1.3 1.4c0.6 0 1.1-0.2 1.6-0.5v2.8C46.9 17.6 46.1 17.8 45.3 17.8z M56.1 17.8c-1.9 0-3.4-0.5-4.5-1.6c-1.1-1.1-1.6-2.6-1.6-4.6c0-2 0.5-3.5 1.6-4.6c1.1-1.1 2.5-1.6 4.3-1.6c1.7 0 3.1 0.5 4.1 1.5c1 1 1.5 2.4 1.5 4.3v1.5h-8.1c0.1 0.9 0.4 1.5 0.9 2c0.5 0.5 1.2 0.7 2 0.7c1.2 0 2.2-0.5 3-1.4l1.9 1.9C59.8 17.1 58.2 17.8 56.1 17.8z M58.1 10.8c0-0.8-0.2-1.4-0.7-1.9c-0.4-0.5-1-0.7-1.8-0.7c-0.7 0-1.4 0.2-1.8 0.7c-0.5 0.5-0.8 1.1-0.8 1.9H58.1z M67.3 17.8c-2.4 0-3.6-1.3-3.6-3.8V8.4h-1.8V5.6h1.8V2.3h3.3v3.3h2.8v2.8h-2.8v5c0 0.9 0.4 1.3 1.3 1.3c0.5 0 0.9-0.1 1.3-0.4v2.8C68.9 17.6 68.1 17.8 67.3 17.8z"/>
</svg>
